#!OML:ASF F:\VICON\USERDATA\INSTALL\Justin_Nancy\Justin_Nancy.ASF
:FULLY-SPECIFIED
:DEGREES
277
root 0.156714 17.2356 1.20746 0.872004 -5.82208 1.28357
lowerback 6.79405 2.4776 -0.190283
upperback 0.145463 3.3102 0.688473
thorax -3.70714 1.65232 0.489429
lowerneck -15.402 -5.31847 -9.66255
upperneck 21.4778 -6.95484 8.22892
head 10.0077 -3.10835 3.57316
rclavicle 7.0817e-015 -5.96354e-015
rhumerus -29.2327 -13.5374 -78.3458
rradius 36.256
rwrist 3.68928
rhand -15.673 13.0075
rfingers 7.12502
rthumb 10.5156 -16.7094
lclavicle 7.0817e-015 -5.96354e-015
lhumerus -38.2442 14.6338 78.1137
lradius 20.7922
lwrist -18.0687
lhand -9.30926 25.681
lfingers 7.12502
lthumb 16.6487 54.9869
rfemur 4.0589 4.43647 21.3105
rtibia 50.2602
rfoot 17.2783 1.95724
rtoes 3.03878
lfemur -27.8332 0.599079 -23.0939
ltibia 31.5086
lfoot -1.32556 -0.162495
ltoes 3.84674
278
root 0.158708 17.2506 1.41091 0.577203 -6.03441 1.74994
lowerback 7.03732 2.53635 -0.756351
upperback 0.0914894 3.33814 0.561385
thorax -3.92477 1.67525 0.658428
lowerneck -15.375 -5.30749 -9.56402
upperneck 21.5236 -6.95282 8.15446
head 10.0118 -3.10837 3.53135
rclavicle -3.44146e-014 4.77083e-015
rhumerus -29.6664 -13.8738 -78.3126
rradius 36.1268
rwrist 3.61375
rhand -15.5982 12.5314
rfingers 7.12502
rthumb 10.5878 -17.1818
lclavicle -3.44146e-014 4.77083e-015
lhumerus -38.6164 14.4252 78.1199
lradius 21.4361
lwrist -17.6084
lhand -9.16236 25.7891
lfingers 7.12502
lthumb 16.7901 55.0831
rfemur 2.40558 4.63004 20.7514
rtibia 53.4084
rfoot 19.566 1.93032
rtoes 7.71042
lfemur -26.8798 0.997057 -23.7274
ltibia 31.7084
lfoot -2.05792 -0.165062
ltoes 2.39896
279
root 0.1671 17.2665 1.61122 0.301164 -6.28735 2.42126
lowerback 7.16373 2.58622 -1.4919
upperback 0.162323 3.33702 0.417839
thorax -3.95596 1.68676 0.916852
lowerneck -15.8771 -5.35063 -9.62771
upperneck 21.9237 -6.9624 8.09233
head 10.2519 -3.11202 3.51664
rclavicle -5.11871e-015 -4.37326e-015
rhumerus -29.6376 -14.17 -78.3184
rradius 35.7147
rwrist 3.63409
rhand -15.4987 12.4323
rfingers 7.12502
rthumb 10.6838 -17.2761
lclavicle -5.11871e-015 -4.37326e-015
lhumerus -38.695 14.3571 78.2386
lradius 21.8996
lwrist -16.7995
lhand -9.24067 25.3955
lfingers 7.12502
lthumb 16.7148 54.6959
rfemur 0.719251 4.7476 19.877
rtibia 56.421
rfoot 20.7682 1.74421
rtoes 12.2298
lfemur -25.8743 1.2858 -24.5901
ltibia 31.7079
lfoot -2.74998 0.142263
ltoes 2.78332
280
root 0.172019 17.2892 1.80594 0.0376992 -6.47796 3.05254
lowerback 7.3545 2.61384 -2.20554
upperback 0.201865 3.30528 0.292416
thorax -4.05443 1.6833 1.18122
lowerneck -15.9009 -5.35931 -9.74671
upperneck 21.904 -6.94411 8.11006
head 10.253 -3.11123 3.54492
rclavicle 5.91633e-014 6.36111e-015
rhumerus -29.6942 -14.4391 -78.3007
rradius 35.3477
rwrist 3.72385
rhand -15.2376 12.5282
rfingers 7.12502
rthumb 10.9355 -17.167
lclavicle 5.91633e-014 6.36111e-015
lhumerus -38.4503 14.0263 78.4967
lradius 21.8718
lwrist -15.7312
lhand -9.47396 25.4782
lfingers 7.12502
lthumb 16.4902 54.7974
rfemur -1.01122 4.75427 19.068
rtibia 59.2859
rfoot 21.0311 1.2639
rtoes 16.6238
lfemur -24.8196 1.46265 -25.3868
ltibia 31.5691
lfoot -3.44648 0.433093
ltoes 3.36104
281
root 0.172265 17.3069 1.99879 -0.156129 -6.42845 3.60118
lowerback 7.49407 2.58424 -2.79648
upperback 0.16413 3.2041 0.128848
thorax -4.1915 1.64433 1.34599
lowerneck -15.5844 -5.33277 -9.74152
upperneck 21.5921 -6.93035 8.16084
head 10.0812 -3.10724 3.56423
rclavicle -1.73937e-014 -1.98785e-015
rhumerus -29.9029 -14.7209 -78.3236
rradius 34.9863
rwrist 3.83758
rhand -15.1931 12.77
rfingers 7.12502
rthumb 10.9785 -16.9229
lclavicle -1.73937e-014 -1.98785e-015
lhumerus -38.2249 13.45 78.7415
lradius 21.8218
lwrist -14.9073
lhand -9.48815 25.943
lfingers 7.12502
lthumb 16.4765 55.2633
rfemur -2.7285 4.44247 18.3752
rtibia 61.9529
rfoot 20.1859 0.846303
rtoes 19.061
lfemur -23.8398 1.50651 -26.0934
ltibia 31.4141
lfoot -4.07648 0.486696
ltoes 3.04318
282
root 0.171329 17.3143 2.19438 -0.342539 -6.22942 4.05691
lowerback 7.48945 2.47645 -3.33475
upperback 0.240446 3.01095 0.0261764
thorax -4.12318 1.55645 1.56497
lowerneck -15.5769 -5.34851 -9.70163
upperneck 21.2999 -6.9424 8.15176
head 9.97495 -3.11128 3.54806
rclavicle 3.37934e-014 -3.18055e-015
rhumerus -29.6824 -14.9668 -78.4055
rradius 34.1841
rwrist 4.18551
rhand -15.4681 13.4307
rfingers 7.12502
rthumb 10.7132 -16.2761
lclavicle 3.37934e-014 -3.18055e-015
lhumerus -37.8508 13.2658 78.878
lradius 21.6406
lwrist -14.5035
lhand -10.0193 25.3715
lfingers 7.12502
lthumb 15.965 54.7336
rfemur -4.37349 3.85514 17.755
rtibia 64.3889
rfoot 18.3177 0.377097
rtoes 17.2619
lfemur -22.8517 1.47719 -26.6853
ltibia 31.2534
lfoot -4.63799 0.502418
ltoes 3.31424
283
root 0.173198 17.326 2.39401 -0.520188 -6.03924 4.18397
lowerback 7.36886 2.34398 -3.47041
upperback 0.413031 2.8292 -0.0106056
thorax -3.8709 1.46321 1.63292
lowerneck -15.6367 -5.38007 -9.60161
upperneck 21.0265 -6.97944 8.11077
head 9.88749 -3.12387 3.50627
rclavicle 4.65653e-014 9.14409e-015
rhumerus -29.4428 -15.4154 -78.4856
rradius 33.4523
rwrist 4.84763
rhand -15.6458 14.0682
rfingers 7.12502
rthumb 10.5419 -15.6474
lclavicle 4.65653e-014 9.14409e-015
lhumerus -37.2668 12.9172 79.1135
lradius 21.4124
lwrist -13.964
lhand -10.414 25.2142
lfingers 7.12502
lthumb 15.585 54.6063
rfemur -5.91086 3.26874 17.5131
rtibia 66.5223
rfoot 16.3232 -0.208323
rtoes 14.0704
lfemur -21.8503 1.36793 -26.919
ltibia 31.121
lfoot -5.19484 0.646613
ltoes 3.68631
284
root 0.18002 17.3411 2.59212 -0.677934 -5.72423 4.3329
lowerback 7.31736 2.15288 -3.51529
upperback 0.445454 2.57169 -0.0661868
thorax -3.79319 1.33439 1.63196
lowerneck -15.5834 -5.32274 -9.57447
upperneck 21.0751 -6.90798 8.08423
head 9.88521 -3.09307 3.50413
rclavicle -2.3879e-014 1.59028e-014
rhumerus -29.5126 -15.699 -78.516
rradius 33.0223
rwrist 5.33437
rhand -15.6583 14.0671
rfingers 7.12502
rthumb 10.5298 -15.6492
lclavicle -2.3879e-014 1.59028e-014
lhumerus -37.1329 12.3297 79.3799
lradius 21.7003
lwrist -13.359
lhand -9.88407 26.0654
lfingers 7.12502
lthumb 16.0953 55.417
rfemur -7.4346 2.58108 17.203
rtibia 68.3781
rfoot 14.8101 -0.745116
rtoes 14.7369
lfemur -20.8052 1.17527 -27.2375
ltibia 30.9873
lfoot -5.78276 0.767924
ltoes 2.74201
285
root 0.183402 17.3539 2.7847 -0.797487 -5.31607 4.51158
lowerback 7.35481 1.97567 -3.65212
upperback 0.393725 2.31971 -0.123095
thorax -3.85684 1.21284 1.67511
lowerneck -15.5619 -5.29997 -9.55343
upperneck 21.3021 -6.88903 8.04313
head 9.95735 -3.08755 3.49231
rclavicle 2.08724e-015 -1.59028e-015
rhumerus -29.6381 -15.9907 -78.5066
rradius 32.5318
rwrist 5.60411
rhand -15.5582 13.6419
rfingers 7.12502
rthumb 10.6264 -16.0695
lclavicle 2.08724e-015 -1.59028e-015
lhumerus -37.1365 12.2727 79.3135
lradius 21.9923
lwrist -13.5825
lhand -9.08567 26.7713
lfingers 7.12502
lthumb 16.864 56.059
rfemur -8.96112 1.84945 16.9209
rtibia 70.0106
rfoot 13.2336 -1.26205
rtoes 15.5302
lfemur -19.7757 0.861842 -27.5653
ltibia 30.797
lfoot -6.29376 0.92446
ltoes 1.7769
286
root 0.187177 17.3647 2.96874 -0.941464 -5.03951 4.60645
lowerback 7.4605 1.86067 -3.73975
upperback 0.387924 2.15457 -0.121147
thorax -3.91593 1.1334 1.7412
lowerneck -15.4889 -5.32992 -9.66678
upperneck 21.3692 -6.93464 8.12822
head 9.97979 -3.11036 3.53724
rclavicle -6.63444e-015 -1.59028e-015
rhumerus -29.7849 -16.3832 -78.3967
rradius 32.1751
rwrist 5.99444
rhand -15.2756 12.8347
rfingers 7.12502
rthumb 10.8989 -16.8625
lclavicle -6.63444e-015 -1.59028e-015
lhumerus -36.7053 12.5608 79.2334
lradius 21.707
lwrist -14.2758
lhand -8.85275 27.1566
lfingers 7.12502
lthumb 17.0882 56.4251
rfemur -10.4166 1.3019 16.7535
rtibia 71.4425
rfoot 11.3623 -1.79116
rtoes 15.3077
lfemur -18.8132 0.589298 -27.7676
ltibia 30.6189
lfoot -6.78357 1.1328
ltoes 1.25547
287
root 0.194582 17.3723 3.15522 -1.08907 -4.80602 4.80883
lowerback 7.46228 1.73683 -3.88578
upperback 0.411635 1.9769 -0.143964
thorax -3.8859 1.04688 1.81969
lowerneck -15.3851 -5.33564 -9.74528
upperneck 21.3587 -6.93029 8.12237
head 9.95892 -3.11813 3.55029
rclavicle 1.76918e-014 -7.95139e-016
rhumerus -29.9295 -16.6556 -78.3062
rradius 31.9373
rwrist 6.37427
rhand -15.0183 12.267
rfingers 7.12502
rthumb 11.1471 -17.4169
lclavicle 1.76918e-014 -7.95139e-016
lhumerus -36.2205 12.7156 79.3289
lradius 21.5393
lwrist -14.6013
lhand -9.02361 27.5376
lfingers 7.12502
lthumb 16.9237 56.8202
rfemur -11.9272 0.715496 16.4042
rtibia 72.7256
rfoot 9.69754 -2.18205
rtoes 14.726
lfemur -17.8647 0.375678 -28.1271
ltibia 30.493
lfoot -7.32109 1.36875
ltoes 0.162553
288
root 0.198182 17.3782 3.34482 -1.28023 -4.6475 4.81466
lowerback 7.54693 1.66559 -3.89135
upperback 0.415479 1.87969 -0.0963515
thorax -3.92514 0.999762 1.88089
lowerneck -15.1764 -5.3422 -9.77571
upperneck 21.3144 -6.92574 8.02968
head 9.90109 -3.13388 3.52541
rclavicle -2.96189e-014 -5.1684e-015
rhumerus -30.2062 -17.0549 -78.1286
rradius 31.7071
rwrist 6.75024
rhand -15.1801 12.0847
rfingers 7.12502
rthumb 10.991 -17.6076
lclavicle -2.96189e-014 -5.1684e-015
lhumerus -35.8753 12.6681 79.526
lradius 21.5978
lwrist -14.6402
lhand -9.24038 27.7155
lfingers 7.12502
lthumb 16.715 57.0159
rfemur -13.3286 0.256487 16.3842
rtibia 73.7662
rfoot 8.18012 -2.58359
rtoes 13.9749
lfemur -16.8492 0.191801 -28.2498
ltibia 30.4162
lfoot -8.00092 1.69866
ltoes -0.00125901
289
root 0.19714 17.3786 3.52145 -1.30879 -4.38489 4.93685
lowerback 7.55465 1.55039 -4.03963
upperback 0.376009 1.71193 -0.109876
thorax -3.96403 0.920353 1.96814
lowerneck -15.1226 -5.31663 -9.7923
upperneck 21.3416 -6.89563 8.04136
head 9.89851 -3.1215 3.53794
rclavicle 1.02871e-014 -1.11319e-014
rhumerus -30.4906 -17.527 -78.0317
rradius 31.5609
rwrist 7.1199
rhand -15.2383 11.6512
rfingers 7.12502
rthumb 10.9349 -18.0441
lclavicle 1.02871e-014 -1.11319e-014
lhumerus -35.5111 12.612 79.6335
lradius 21.6499
lwrist -14.8651
lhand -9.44253 27.7735
lfingers 7.12502
lthumb 16.5204 57.0902
rfemur -14.9238 -0.195705 16.2937
rtibia 74.6458
rfoot 6.66534 -3.05151
rtoes 14.0224
lfemur -16.1292 -0.069495 -28.4693
ltibia 30.3969
lfoot -8.71512 1.93788
ltoes 0.850767
290
root 0.199396 17.3781 3.69019 -1.32003 -4.08152 5.23434
lowerback 7.65733 1.4307 -4.28036
upperback 0.281677 1.51984 -0.219848
thorax -4.11085 0.832561 2.00725
lowerneck -15.2148 -5.31625 -9.68115
upperneck 21.5924 -6.9135 7.96578
head 9.99961 -3.12673 3.492
rclavicle -9.61621e-015 -8.34896e-015
rhumerus -30.7871 -18.1069 -77.8782
rradius 31.1369
rwrist 7.72239
rhand -14.9661 11.9449
rfingers 7.12502
rthumb 11.1975 -17.7363
lclavicle -9.61621e-015 -8.34896e-015
lhumerus -35.3103 12.4002 79.6655
lradius 21.7741
lwrist -15.2425
lhand -9.73565 26.9532
lfingers 7.12502
lthumb 16.2382 56.2931
rfemur -16.5821 -0.714272 15.9541
rtibia 75.3199
rfoot 5.10834 -3.31937
rtoes 12.8905
lfemur -15.5162 -0.359037 -28.9158
ltibia 30.4921
lfoot -9.33918 2.21467
ltoes 0.547322
